<mxfile host="app.diagrams.net" modified="2023-10-10T23:18:07.901Z" agent="Mozilla/5.0 (Windows NT 10.0; Win64; x64) AppleWebKit/537.36 (KHTML, like Gecko) Chrome/117.0.0.0 Safari/537.36" etag="ZJWAa0XEvnk6l_5AKldH" version="22.0.4" type="github">
  <diagram id="C5RBs43oDa-KdzZeNtuy" name="Page-1">
    <mxGraphModel dx="990" dy="1615" grid="1" gridSize="10" guides="1" tooltips="1" connect="1" arrows="1" fold="1" page="1" pageScale="1" pageWidth="827" pageHeight="1169" math="0" shadow="0">
      <root>
        <mxCell id="WIyWlLk6GJQsqaUBKTNV-0" />
        <mxCell id="WIyWlLk6GJQsqaUBKTNV-1" parent="WIyWlLk6GJQsqaUBKTNV-0" />
        <mxCell id="bInXwuXmaLJvTsh4MsIk-34" value="" style="edgeStyle=orthogonalEdgeStyle;rounded=0;orthogonalLoop=1;jettySize=auto;html=1;" edge="1" parent="WIyWlLk6GJQsqaUBKTNV-1" source="bInXwuXmaLJvTsh4MsIk-0" target="bInXwuXmaLJvTsh4MsIk-30">
          <mxGeometry relative="1" as="geometry" />
        </mxCell>
        <mxCell id="bInXwuXmaLJvTsh4MsIk-40" value="" style="edgeStyle=orthogonalEdgeStyle;rounded=0;orthogonalLoop=1;jettySize=auto;html=1;" edge="1" parent="WIyWlLk6GJQsqaUBKTNV-1" source="bInXwuXmaLJvTsh4MsIk-0" target="bInXwuXmaLJvTsh4MsIk-36">
          <mxGeometry relative="1" as="geometry" />
        </mxCell>
        <mxCell id="bInXwuXmaLJvTsh4MsIk-0" value="Carta" style="swimlane;fontStyle=1;align=center;verticalAlign=top;childLayout=stackLayout;horizontal=1;startSize=26;horizontalStack=0;resizeParent=1;resizeParentMax=0;resizeLast=0;collapsible=1;marginBottom=0;whiteSpace=wrap;html=1;" vertex="1" parent="WIyWlLk6GJQsqaUBKTNV-1">
          <mxGeometry x="210" y="90" width="200" height="200" as="geometry">
            <mxRectangle x="180" y="330" width="100" height="30" as="alternateBounds" />
          </mxGeometry>
        </mxCell>
        <mxCell id="bInXwuXmaLJvTsh4MsIk-1" value="+ nome: String&lt;br&gt;+ descricao: String&lt;br&gt;+ ataque: Int&lt;br&gt;+ defesa: Int&lt;br&gt;+ categoria: String" style="text;strokeColor=none;fillColor=none;align=left;verticalAlign=top;spacingLeft=4;spacingRight=4;overflow=hidden;rotatable=0;points=[[0,0.5],[1,0.5]];portConstraint=eastwest;whiteSpace=wrap;html=1;" vertex="1" parent="bInXwuXmaLJvTsh4MsIk-0">
          <mxGeometry y="26" width="200" height="84" as="geometry" />
        </mxCell>
        <mxCell id="bInXwuXmaLJvTsh4MsIk-2" value="" style="line;strokeWidth=1;fillColor=none;align=left;verticalAlign=middle;spacingTop=-1;spacingLeft=3;spacingRight=3;rotatable=0;labelPosition=right;points=[];portConstraint=eastwest;strokeColor=inherit;" vertex="1" parent="bInXwuXmaLJvTsh4MsIk-0">
          <mxGeometry y="110" width="200" height="8" as="geometry" />
        </mxCell>
        <mxCell id="bInXwuXmaLJvTsh4MsIk-3" value="+ lerCartasCSV(file): String&lt;br&gt;+getCartas(): Carta&lt;br&gt;+distribuirCartas(Carta): Carta&lt;br&gt;+obterCartaAleatoria():Carta" style="text;strokeColor=none;fillColor=none;align=left;verticalAlign=top;spacingLeft=4;spacingRight=4;overflow=hidden;rotatable=0;points=[[0,0.5],[1,0.5]];portConstraint=eastwest;whiteSpace=wrap;html=1;" vertex="1" parent="bInXwuXmaLJvTsh4MsIk-0">
          <mxGeometry y="118" width="200" height="82" as="geometry" />
        </mxCell>
        <mxCell id="bInXwuXmaLJvTsh4MsIk-30" value="Monstro" style="swimlane;fontStyle=1;align=center;verticalAlign=top;childLayout=stackLayout;horizontal=1;startSize=26;horizontalStack=0;resizeParent=1;resizeParentMax=0;resizeLast=0;collapsible=1;marginBottom=0;whiteSpace=wrap;html=1;" vertex="1" parent="WIyWlLk6GJQsqaUBKTNV-1">
          <mxGeometry x="220" y="370" width="180" height="150" as="geometry">
            <mxRectangle x="180" y="330" width="100" height="30" as="alternateBounds" />
          </mxGeometry>
        </mxCell>
        <mxCell id="bInXwuXmaLJvTsh4MsIk-31" value="+ nome: String&lt;br&gt;+ descricao: String&lt;br&gt;+ ataque: Int&lt;br&gt;+ defesa: Int&lt;br&gt;+ modo: String" style="text;strokeColor=none;fillColor=none;align=left;verticalAlign=top;spacingLeft=4;spacingRight=4;overflow=hidden;rotatable=0;points=[[0,0.5],[1,0.5]];portConstraint=eastwest;whiteSpace=wrap;html=1;" vertex="1" parent="bInXwuXmaLJvTsh4MsIk-30">
          <mxGeometry y="26" width="180" height="84" as="geometry" />
        </mxCell>
        <mxCell id="bInXwuXmaLJvTsh4MsIk-32" value="" style="line;strokeWidth=1;fillColor=none;align=left;verticalAlign=middle;spacingTop=-1;spacingLeft=3;spacingRight=3;rotatable=0;labelPosition=right;points=[];portConstraint=eastwest;strokeColor=inherit;" vertex="1" parent="bInXwuXmaLJvTsh4MsIk-30">
          <mxGeometry y="110" width="180" height="8" as="geometry" />
        </mxCell>
        <mxCell id="bInXwuXmaLJvTsh4MsIk-33" value="+ setModo(monstro):Monstro" style="text;strokeColor=none;fillColor=none;align=left;verticalAlign=top;spacingLeft=4;spacingRight=4;overflow=hidden;rotatable=0;points=[[0,0.5],[1,0.5]];portConstraint=eastwest;whiteSpace=wrap;html=1;" vertex="1" parent="bInXwuXmaLJvTsh4MsIk-30">
          <mxGeometry y="118" width="180" height="32" as="geometry" />
        </mxCell>
        <mxCell id="bInXwuXmaLJvTsh4MsIk-36" value="Equipamento" style="swimlane;fontStyle=1;align=center;verticalAlign=top;childLayout=stackLayout;horizontal=1;startSize=26;horizontalStack=0;resizeParent=1;resizeParentMax=0;resizeLast=0;collapsible=1;marginBottom=0;whiteSpace=wrap;html=1;" vertex="1" parent="WIyWlLk6GJQsqaUBKTNV-1">
          <mxGeometry x="560" y="140" width="160" height="100" as="geometry">
            <mxRectangle x="180" y="330" width="100" height="30" as="alternateBounds" />
          </mxGeometry>
        </mxCell>
        <mxCell id="bInXwuXmaLJvTsh4MsIk-37" value="+ nome: String&lt;br&gt;+ descricao: String&lt;br&gt;+ ataque: Int&lt;br&gt;+ defesa: Int" style="text;strokeColor=none;fillColor=none;align=left;verticalAlign=top;spacingLeft=4;spacingRight=4;overflow=hidden;rotatable=0;points=[[0,0.5],[1,0.5]];portConstraint=eastwest;whiteSpace=wrap;html=1;" vertex="1" parent="bInXwuXmaLJvTsh4MsIk-36">
          <mxGeometry y="26" width="160" height="74" as="geometry" />
        </mxCell>
        <mxCell id="bInXwuXmaLJvTsh4MsIk-50" value="" style="edgeStyle=orthogonalEdgeStyle;rounded=0;orthogonalLoop=1;jettySize=auto;html=1;" edge="1" parent="WIyWlLk6GJQsqaUBKTNV-1" source="bInXwuXmaLJvTsh4MsIk-41" target="bInXwuXmaLJvTsh4MsIk-46">
          <mxGeometry relative="1" as="geometry" />
        </mxCell>
        <mxCell id="bInXwuXmaLJvTsh4MsIk-60" style="edgeStyle=orthogonalEdgeStyle;rounded=0;orthogonalLoop=1;jettySize=auto;html=1;" edge="1" parent="WIyWlLk6GJQsqaUBKTNV-1" source="bInXwuXmaLJvTsh4MsIk-41" target="bInXwuXmaLJvTsh4MsIk-30">
          <mxGeometry relative="1" as="geometry" />
        </mxCell>
        <mxCell id="bInXwuXmaLJvTsh4MsIk-61" style="edgeStyle=orthogonalEdgeStyle;rounded=0;orthogonalLoop=1;jettySize=auto;html=1;" edge="1" parent="WIyWlLk6GJQsqaUBKTNV-1" source="bInXwuXmaLJvTsh4MsIk-41" target="bInXwuXmaLJvTsh4MsIk-36">
          <mxGeometry relative="1" as="geometry" />
        </mxCell>
        <mxCell id="bInXwuXmaLJvTsh4MsIk-41" value="Player" style="swimlane;fontStyle=1;align=center;verticalAlign=top;childLayout=stackLayout;horizontal=1;startSize=26;horizontalStack=0;resizeParent=1;resizeParentMax=0;resizeLast=0;collapsible=1;marginBottom=0;whiteSpace=wrap;html=1;" vertex="1" parent="WIyWlLk6GJQsqaUBKTNV-1">
          <mxGeometry x="220" y="660" width="250" height="160" as="geometry">
            <mxRectangle x="180" y="330" width="100" height="30" as="alternateBounds" />
          </mxGeometry>
        </mxCell>
        <mxCell id="bInXwuXmaLJvTsh4MsIk-42" value="+ nome: String&lt;br&gt;+ pontos: String&lt;br&gt;+ baralho: Carta" style="text;strokeColor=none;fillColor=none;align=left;verticalAlign=top;spacingLeft=4;spacingRight=4;overflow=hidden;rotatable=0;points=[[0,0.5],[1,0.5]];portConstraint=eastwest;whiteSpace=wrap;html=1;" vertex="1" parent="bInXwuXmaLJvTsh4MsIk-41">
          <mxGeometry y="26" width="250" height="54" as="geometry" />
        </mxCell>
        <mxCell id="bInXwuXmaLJvTsh4MsIk-43" value="" style="line;strokeWidth=1;fillColor=none;align=left;verticalAlign=middle;spacingTop=-1;spacingLeft=3;spacingRight=3;rotatable=0;labelPosition=right;points=[];portConstraint=eastwest;strokeColor=inherit;" vertex="1" parent="bInXwuXmaLJvTsh4MsIk-41">
          <mxGeometry y="80" width="250" height="8" as="geometry" />
        </mxCell>
        <mxCell id="bInXwuXmaLJvTsh4MsIk-44" value="+ createPlayer(nome, baralho): Player&lt;br&gt;+ getMonstro(player):Monstro&lt;br&gt;+ getEquipamento(player):Equipamento&lt;br&gt;+getCarta(player): Carta" style="text;strokeColor=none;fillColor=none;align=left;verticalAlign=top;spacingLeft=4;spacingRight=4;overflow=hidden;rotatable=0;points=[[0,0.5],[1,0.5]];portConstraint=eastwest;whiteSpace=wrap;html=1;" vertex="1" parent="bInXwuXmaLJvTsh4MsIk-41">
          <mxGeometry y="88" width="250" height="72" as="geometry" />
        </mxCell>
        <mxCell id="bInXwuXmaLJvTsh4MsIk-55" value="" style="edgeStyle=orthogonalEdgeStyle;rounded=0;orthogonalLoop=1;jettySize=auto;html=1;" edge="1" parent="WIyWlLk6GJQsqaUBKTNV-1" source="bInXwuXmaLJvTsh4MsIk-46" target="bInXwuXmaLJvTsh4MsIk-51">
          <mxGeometry relative="1" as="geometry" />
        </mxCell>
        <mxCell id="bInXwuXmaLJvTsh4MsIk-46" value="Tabuleiro" style="swimlane;fontStyle=1;align=center;verticalAlign=top;childLayout=stackLayout;horizontal=1;startSize=26;horizontalStack=0;resizeParent=1;resizeParentMax=0;resizeLast=0;collapsible=1;marginBottom=0;whiteSpace=wrap;html=1;" vertex="1" parent="WIyWlLk6GJQsqaUBKTNV-1">
          <mxGeometry x="540" y="790" width="250" height="110" as="geometry">
            <mxRectangle x="180" y="330" width="100" height="30" as="alternateBounds" />
          </mxGeometry>
        </mxCell>
        <mxCell id="bInXwuXmaLJvTsh4MsIk-47" value="+ player: Player&lt;br&gt;+ monstro: Monstro" style="text;strokeColor=none;fillColor=none;align=left;verticalAlign=top;spacingLeft=4;spacingRight=4;overflow=hidden;rotatable=0;points=[[0,0.5],[1,0.5]];portConstraint=eastwest;whiteSpace=wrap;html=1;" vertex="1" parent="bInXwuXmaLJvTsh4MsIk-46">
          <mxGeometry y="26" width="250" height="44" as="geometry" />
        </mxCell>
        <mxCell id="bInXwuXmaLJvTsh4MsIk-48" value="" style="line;strokeWidth=1;fillColor=none;align=left;verticalAlign=middle;spacingTop=-1;spacingLeft=3;spacingRight=3;rotatable=0;labelPosition=right;points=[];portConstraint=eastwest;strokeColor=inherit;" vertex="1" parent="bInXwuXmaLJvTsh4MsIk-46">
          <mxGeometry y="70" width="250" height="8" as="geometry" />
        </mxCell>
        <mxCell id="bInXwuXmaLJvTsh4MsIk-49" value="+ createTabuleiro(player, monstro): Tabuleiro" style="text;strokeColor=none;fillColor=none;align=left;verticalAlign=top;spacingLeft=4;spacingRight=4;overflow=hidden;rotatable=0;points=[[0,0.5],[1,0.5]];portConstraint=eastwest;whiteSpace=wrap;html=1;" vertex="1" parent="bInXwuXmaLJvTsh4MsIk-46">
          <mxGeometry y="78" width="250" height="32" as="geometry" />
        </mxCell>
        <mxCell id="bInXwuXmaLJvTsh4MsIk-51" value="Rodada" style="swimlane;fontStyle=1;align=center;verticalAlign=top;childLayout=stackLayout;horizontal=1;startSize=26;horizontalStack=0;resizeParent=1;resizeParentMax=0;resizeLast=0;collapsible=1;marginBottom=0;whiteSpace=wrap;html=1;" vertex="1" parent="WIyWlLk6GJQsqaUBKTNV-1">
          <mxGeometry x="510" y="949" width="310" height="220" as="geometry">
            <mxRectangle x="180" y="330" width="100" height="30" as="alternateBounds" />
          </mxGeometry>
        </mxCell>
        <mxCell id="bInXwuXmaLJvTsh4MsIk-54" value="+ executarAcao(tabuleiroA, tabuleiroB): void&lt;br&gt;+ equiparMonstro(tabuleiro): void&lt;br&gt;+ posicionarMonstro(tabuleiro): void&lt;br&gt;+ descartarCarta(player): void&lt;br&gt;+ atacar(tabuleiroA, tabuleiroB): void&lt;br&gt;+ removerMonstro(tabuleiroB, monstroB): void&lt;br&gt;+ escolherMonstroParaAtacar(tabuleiro): Monstro&lt;br&gt;+ calcularDano(monstroA, monstroB): Int&lt;br&gt;+ alterarEstado(monstro): void" style="text;strokeColor=none;fillColor=none;align=left;verticalAlign=top;spacingLeft=4;spacingRight=4;overflow=hidden;rotatable=0;points=[[0,0.5],[1,0.5]];portConstraint=eastwest;whiteSpace=wrap;html=1;" vertex="1" parent="bInXwuXmaLJvTsh4MsIk-51">
          <mxGeometry y="26" width="310" height="194" as="geometry" />
        </mxCell>
      </root>
    </mxGraphModel>
  </diagram>
</mxfile>
